<?xml version="1.0" encoding="utf-8"?>
<!-- Generator: Adobe Illustrator 16.0.0, SVG Export Plug-In . SVG Version: 6.00 Build 0)  -->
<!DOCTYPE svg PUBLIC "-//W3C//DTD SVG 1.1//EN" "http://www.w3.org/Graphics/SVG/1.1/DTD/svg11.dtd">
<svg version="1.1" id="Layer_1" xmlns="http://www.w3.org/2000/svg" xmlns:xlink="http://www.w3.org/1999/xlink" x="0px" y="0px"
	 width="300px" height="107.13px" viewBox="0 0 300 107.13" enable-background="new 0 0 300 107.13" xml:space="preserve">
<path fill-rule="evenodd" clip-rule="evenodd" fill="#EF3C5A" d="M176.764,57.738c-0.412,0.624-0.676,1.051-0.963,1.463
	c-2.684,3.843-5.694,7.352-9.798,9.78c-5.502,3.252-11.465,4.594-17.68,3.247c-3.189-0.692-6.156-2.477-9.159-3.901
	c-0.692-0.327-1.07-0.335-1.687,0.028c-2.576,1.519-5.081,3.223-7.81,4.404c-4.841,2.096-9.938,3.27-15.208,1.876
	c-3.302-0.874-6.159-2.735-8.74-4.973c-1.83-1.587-1.948-1.586-3.805-0.059c-3.338,2.747-7.191,4.518-11.225,5.981
	c-5.002,1.817-10.161,2.93-15.438,3.452c-6.438,0.637-12.407-0.456-16.765-5.748c-3.492-4.24-4.426-9.159-2.289-14.273
	c2.34-5.599,5.045-11.047,7.586-16.561c1.325-2.873,2.658-5.743,3.943-8.633c0.235-0.531,0.33-1.15,0.356-1.736
	c0.051-1.077,0.27-2.257-0.976-2.906c-1.273-0.66-2.775-0.541-3.708,0.639c-1.169,1.477-2.204,3.095-3.075,4.767
	c-2.884,5.535-5.674,11.121-8.486,16.693c-2.11,4.178-4.18,8.374-6.31,12.541c-2.018,3.952-5.81,5.458-9.919,3.921
	c-1.384-0.52-2.253-1.541-2.485-3.094c-0.33-2.204,0.393-4.177,1.174-6.15c1.707-4.315,3.437-8.622,5.144-12.939
	c0.914-2.314,1.828-4.631,2.687-6.966c0.601-1.633,0.781-3.365,0.08-4.969c-0.542-1.237-1.61-2.131-3.108-1.998
	c-1.636,0.145-2.923,1-3.54,2.519c-2.17,5.357-4.251,10.75-6.386,16.122c-2.554,6.429-5.065,12.876-7.726,19.261
	c-0.984,2.36-2.47,4.509-4.969,5.519c-1.265,0.513-2.697,0.83-4.059,0.849c-4.25,0.056-7.921-1.364-10.428-4.971
	c-1.993-2.869-2.48-6.061-1.518-9.438c0.892-3.126,1.782-6.253,2.717-9.367c0.886-2.951,1.827-5.886,2.746-8.829
	c0.856-2.739,1.658-5.5,2.587-8.214c1.828-5.344,3.303-10.848,6.2-15.75c1.981-3.354,5.193-5.167,8.876-6.292
	c3.851-1.175,7.13,0.304,10.417,1.94c1.247,0.619,2.478,1.28,3.757,1.819c1.785,0.749,3.412,0.275,4.854-0.899
	c1.18-0.961,2.37-1.92,3.458-2.983c2.718-2.653,8.588-3.144,11.456-0.057c0.661,0.711,1.44,1.311,2.17,1.955
	c1.502,1.326,2.123,1.462,3.86,0.481c4.132-2.333,8.412-2.01,12.619-0.514c2.441,0.869,3.902,2.942,4.835,5.398
	c1.373,3.616,0.797,7.108-0.578,10.507c-2.529,6.253-5.285,12.413-7.753,18.689c-1.463,3.723-2.699,7.552-3.75,11.41
	c-0.429,1.573-0.432,3.437-0.032,5.017c0.604,2.392,2.795,3.175,5.011,3.456c3.374,0.427,6.685-0.199,9.917-1.094
	c2.761-0.76,5.479-1.699,8.175-2.673c1.301-0.47,2.513-1.192,3.755-1.823c1.062-0.537,1.145-1.323,0.585-2.312
	c-1.144-2.018-2.347-4.011-3.354-6.098c-2.131-4.412-3.883-8.966-3.416-13.997c0.409-4.404,1.999-8.229,6.062-10.547
	c5.999-3.419,10.867-2.475,15.277,2.633c3.813,4.419,5.071,9.739,3.434,15.438c-0.916,3.187-2.227,6.267-3.477,9.349
	c-0.346,0.853-0.145,1.4,0.395,1.902c2.526,2.359,5.405,4.192,8.603,5.488c1.205,0.491,2.479,0.857,3.757,1.113
	c2.747,0.551,5.296-0.103,7.585-1.656c1.09-0.739,1.114-1.429,0.357-2.459c-5.265-7.18-7.349-15.173-5.767-23.956
	c0.593-3.288,2.113-6.394,5.644-7.341c2.182-0.586,4.646-0.561,6.915-0.272c3.688,0.469,7.025,1.94,9.291,5.114
	c2.717,3.808,3.411,7.977,2.241,12.53c-0.839,3.27-2.555,6.052-4.443,8.754c-0.748,1.072-0.777,2.059,0.242,2.775
	c1.57,1.104,3.167,2.314,4.941,2.953c3.855,1.388,7.857,1.267,11.742,0.018c4.25-1.369,7.237-4.189,8.94-8.373
	c2.034-5.004,2.06-10.245,1.956-15.505c-0.082-4.11-0.226-8.219-0.348-12.33c-0.043-1.468-0.279-1.553-1.679-1.269
	c-3.687,0.745-7.393,1.404-11.092,2.081c-1.167,0.212-2.345,0.355-3.511,0.566c-2.542,0.457-4.639-0.587-4.782-3.56
	c-0.146-2.997-0.581-5.979-0.889-8.968c-0.018-0.168-0.032-0.338-0.041-0.508c-0.172-3.518,0.68-5.432,4.903-5.279
	c4.362,0.16,8.725,0.304,13.081,0.533c2.143,0.111,2.896-0.428,3.038-2.555c0.108-1.651,0.154-3.303,0.257-4.954
	c0.155-2.475,0.72-3.063,3.234-2.965c1.503,0.059,3.014,0.321,4.483,0.652c2.07,0.466,3.155,1.923,3.299,3.982
	c0.116,1.688,0.067,3.388,0.041,5.081c-0.022,1.198,0.35,1.841,1.692,1.976c3.876,0.395,7.737,0.934,11.605,1.393
	c1.826,0.217,2.851,0.957,3.098,2.314c0.429,2.358-0.081,3.973-1.861,4.618c-2.49,0.901-5.064,1.587-7.639,2.222
	c-1.801,0.445-3.667,0.635-5.498,0.972c-1.229,0.225-1.896,0.87-1.886,2.252c0.046,6.825-0.108,13.656,0.09,20.474
	c0.103,3.578,0.64,7.161,2.164,10.503c1.231,2.707,3.334,3.773,6.259,3.283c4.291-0.72,8.225-2.227,11.651-4.942
	c1.901-1.507,3.151-3.35,3.246-5.896c0.172-4.659,0.401-9.317,0.676-13.969c0.079-1.342,0.23-2.734,0.679-3.986
	c0.249-0.695,1.16-1.613,1.795-1.632c3.505-0.106,7.034-0.141,10.522,0.162c2.195,0.19,3.703,2.243,3.587,4.566
	c-0.157,3.253-0.578,6.494-0.888,9.74c-0.383,4.005-0.735,8.013-1.161,12.013c-0.431,4.049,2.808,6.056,6.012,6.095
	c2.688,0.032,4.275-0.971,5.417-3.815c1.183-2.944,1.886-6.136,2.396-9.284c0.722-4.469,1.062-9,1.596-13.5
	c0.216-1.838,1.363-3.251,2.79-3.558c1.65-0.354,3.814,0.315,4.354,1.823c0.453,1.26,0.35,2.8,0.192,4.182
	c-0.583,5.125-1.424,10.225-1.904,15.361c-0.296,3.155,1.474,5.4,4.538,6.333c1.527,0.463,3.111,0.83,4.693,1.013
	c2.777,0.318,4.745-1.71,5.325-4.868c0.491-2.655,0.557-5.388,0.795-8.088c0.279-3.206,0.319-6.454,0.867-9.614
	c0.806-4.678,3.828-8.922,9.427-10.284c3.361-0.818,6.75-0.916,10.105-0.528c5.116,0.589,10.468,4.066,12.104,9.943
	c1.242,4.468,0.748,8.784-0.713,13.082c-1.693,4.981-4.788,8.863-9.109,11.818c-0.399,0.272-0.632,0.789-0.938,1.194
	c0.542,0.24,1.09,0.696,1.63,0.686c5.165-0.079,10.037-1.26,14.497-3.966c1.006-0.609,2.103-1.071,3.165-1.576
	c0.977-0.463,1.552,0.085,1.28,0.927c-0.453,1.412-0.998,2.901-1.901,4.042c-3.822,4.832-9.036,7.148-15.066,7.554
	c-2.558,0.172-5.154-0.17-7.731-0.312c-1.944-0.109-3.887-0.278-5.832-0.41c-0.986-0.065-1.557,0.35-1.804,1.37
	c-1.549,6.391-2.368,12.89-3.171,19.406c-0.507,4.103-1.272,8.192-2.254,12.207c-0.532,2.178-2.233,3.68-4.588,4.06
	c-1.407,0.227-2.449-0.382-2.922-1.694c-0.397-1.106-0.77-2.268-0.864-3.427c-0.465-5.721-0.274-11.429,0.485-17.123
	c0.385-2.897,0.643-5.81,0.974-8.713c0.233-2.019,0.537-4.032,0.728-6.055c0.148-1.634-0.224-2.02-1.788-2.332
	c-3.236-0.646-6.475-1.28-9.697-1.994c-2.189-0.487-3.896,0.289-5.38,1.797c-1.973,2.006-4.15,3.749-6.736,4.876
	c-3.122,1.362-6.432,1.076-9.643,0.567c-4.634-0.738-8.334-3.174-10.965-7.083c-0.817-1.213-1.408-2.581-2.048-3.903
	c-0.358-0.74-0.681-1.029-1.55-0.586c-3.079,1.568-6.146,3.177-9.325,4.52c-3.541,1.496-7.298,2.022-11.06,0.973
	c-3.668-1.025-6.481-3.386-8.816-6.337C178.351,59.778,177.734,58.982,176.764,57.738z M282.4,43.061
	c-0.04-0.507-0.04-1.018-0.124-1.518c-0.47-2.891-3.372-4.185-5.711-2.441c-1.057,0.788-2.018,1.823-2.739,2.93
	c-2.409,3.693-3.497,7.924-4.585,12.131c-0.273,1.057-0.464,2.174-0.442,3.259c0.041,2.021,1.229,2.615,2.922,1.523
	c3.513-2.266,6.115-5.41,8.312-8.905C281.367,47.918,282.461,45.679,282.4,43.061z M144.555,45.1
	c0.031-2.008-0.438-3.867-1.917-5.312c-0.82-0.8-1.846-1.149-3.021-0.782c-1.426,0.442-2.196,1.5-2.304,3.256
	c-0.208,3.402,1.253,6.325,2.757,9.203c0.774,1.482,1.51,1.435,2.511,0.065C143.979,49.615,144.525,47.438,144.555,45.1z
	 M109.873,44.45c-0.372-1.23-0.618-2.519-1.149-3.677c-0.678-1.474-2.426-2.138-3.972-1.733c-1.636,0.429-2.282,1.209-2.112,3.224
	c0.148,1.754,0.552,3.503,1.019,5.207c0.343,1.252,0.87,2.479,1.493,3.62c0.839,1.537,1.716,1.552,2.541,0.064
	C108.83,49.106,109.708,46.955,109.873,44.45z"/>
</svg>
