<?xml version="1.0" encoding="utf-8"?>
<!-- Generator: Adobe Illustrator 16.0.0, SVG Export Plug-In . SVG Version: 6.00 Build 0)  -->
<!DOCTYPE svg PUBLIC "-//W3C//DTD SVG 1.1//EN" "http://www.w3.org/Graphics/SVG/1.1/DTD/svg11.dtd">
<svg version="1.1" id="Layer_1" xmlns="http://www.w3.org/2000/svg" xmlns:xlink="http://www.w3.org/1999/xlink" x="0px" y="0px"
	 width="72px" height="72px" viewBox="110 0 72 72" enable-background="new 110 0 72 72" xml:space="preserve">
<path d="M168.818,44.571c0.006,5.457-3.926,10.16-9.271,11.084c-0.673,0.117-1.353,0.184-2.034,0.178
	c-0.23-0.002-0.322,0.09-0.395,0.301c-1.067,3.064-3.197,4.891-6.414,5.352c-2.128,0.303-4.061-0.268-5.752-1.598
	c-0.236-0.186-0.38-0.189-0.626-0.014c-1.98,1.416-4.2,2.043-6.625,1.898c-4.73-0.287-8.711-3.902-9.455-8.564
	c-0.052-0.322-0.106-0.646-0.111-0.971c-0.005-0.271-0.107-0.375-0.365-0.426c-1.433-0.279-2.731-0.869-3.879-1.768
	c-2.109-1.65-3.376-3.809-3.671-6.477c-0.336-3.055,0.607-5.695,2.756-7.897c0.173-0.177,0.185-0.299,0.066-0.507
	c-0.826-1.441-1.218-3.004-1.154-4.66c0.159-4.133,3.035-7.548,7.035-8.394c0.463-0.099,0.706-0.28,0.909-0.718
	c1.974-4.251,5.287-6.837,9.884-7.69c3.228-0.599,6.271,0.042,9.098,1.704c0.238,0.14,0.437,0.151,0.693,0.077
	c4.487-1.302,8.463-0.355,11.84,2.854c1.995,1.897,3.09,4.299,3.414,7.039c0.07,0.6,0.104,1.204,0.057,1.807
	c-0.017,0.228,0.054,0.322,0.27,0.402c2.023,0.749,3.418,2.146,4.028,4.21c0.76,2.569,0.122,4.823-1.798,6.696
	c-0.166,0.162-0.131,0.262-0.037,0.424C168.296,40.665,168.82,42.546,168.818,44.571z M163.863,60.349
	c0.003-1.498-1.254-2.752-2.764-2.756c-1.55-0.006-2.806,1.232-2.812,2.771c-0.006,1.502,1.271,2.777,2.783,2.779
	C162.602,63.146,163.861,61.884,163.863,60.349z M117.146,37.378c1.458,0.002,2.685-1.216,2.679-2.661
	c-0.008-1.446-1.207-2.646-2.652-2.649c-1.481-0.004-2.657,1.171-2.656,2.655C114.517,36.189,115.688,37.374,117.146,37.378z
	 M149.783,7.666c-1.465-0.008-2.659,1.163-2.667,2.615c-0.009,1.45,1.181,2.642,2.638,2.644c1.452,0,2.618-1.161,2.621-2.614
	C152.378,8.85,151.225,7.673,149.783,7.666z M171.35,24.102c-0.006-1.204-1.033-2.229-2.24-2.236
	c-1.234-0.009-2.279,1.034-2.271,2.265c0.01,1.229,1.005,2.213,2.24,2.214C170.352,26.348,171.357,25.353,171.35,24.102z
	 M125.143,17.673c0,1.131,0.879,2.019,2.002,2.021c1.139,0.001,2.021-0.892,2.017-2.037c-0.004-1.112-0.887-1.982-2.005-1.979
	C126.006,15.68,125.143,16.534,125.143,17.673z M146.181,64.296c0.01-0.939-0.765-1.717-1.717-1.719
	c-0.978-0.004-1.745,0.754-1.742,1.719c0.002,0.951,0.765,1.705,1.725,1.705C145.407,66.001,146.173,65.249,146.181,64.296z
	 M173.044,37.544c-0.915-0.006-1.708,0.787-1.701,1.701c0.009,0.904,0.763,1.646,1.675,1.646c0.957,0.002,1.676-0.703,1.678-1.648
	C174.698,38.308,173.963,37.552,173.044,37.544z M132.866,6c-0.808-0.003-1.43,0.613-1.43,1.415c0,0.798,0.629,1.417,1.436,1.414
	c0.781-0.004,1.395-0.627,1.395-1.419C134.267,6.61,133.664,6.004,132.866,6z M176.236,29.944c-0.657-0.008-1.254,0.581-1.262,1.247
	c-0.009,0.688,0.565,1.263,1.266,1.265c0.695,0.003,1.24-0.538,1.244-1.235C177.491,30.519,176.938,29.953,176.236,29.944z
	 M126.454,54.772c0.003-0.668-0.572-1.242-1.25-1.25c-0.688-0.004-1.251,0.572-1.247,1.275c0.005,0.688,0.562,1.229,1.257,1.225
	C125.896,56.021,126.452,55.458,126.454,54.772z"/>
<path fill="#FFFFFF" d="M155.585,25.82c-1.343-0.25-2.679-0.278-3.894,0.521c-0.403,0.267-0.793,0.202-1.143-0.106
	c-0.268-0.235-0.523-0.484-0.785-0.727c-1.238-1.144-2.875-1.199-4.206-0.154c-0.537,0.421-0.988,0.943-1.571,1.31
	c-0.521,0.327-1.046,0.42-1.623,0.112c-0.549-0.293-1.117-0.551-1.686-0.809c-0.575-0.26-1.131-0.579-1.778-0.635
	c-2.046-0.174-4.187,1.042-5.089,2.891c-0.399,0.817-0.728,1.667-1.038,2.522c-1.432,3.954-2.598,7.993-3.805,12.017
	c-0.54,1.801,0.098,3.572,1.623,4.547c1.189,0.758,2.493,0.945,3.841,0.541c1.093-0.33,1.691-1.209,2.109-2.197
	c1.39-3.277,2.642-6.611,3.967-9.916c0.364-0.909,0.717-1.822,1.104-2.721c0.392-0.908,1.514-1.219,2.18-0.615
	c0.405,0.368,0.514,0.856,0.474,1.38c-0.044,0.559-0.26,1.075-0.464,1.588c-0.862,2.181-1.74,4.354-2.606,6.53
	c-0.175,0.439-0.363,0.877-0.441,1.35c-0.132,0.812,0.188,1.531,0.853,1.818c0.678,0.291,1.38,0.34,2.083,0.086
	c0.817-0.297,1.306-0.938,1.682-1.676c1.292-2.537,2.575-5.082,3.866-7.62c0.597-1.173,1.205-2.34,1.813-3.505
	c0.226-0.433,0.492-0.842,0.915-1.11c0.383-0.242,0.794-0.26,1.186-0.04c0.382,0.214,0.408,0.605,0.392,0.991
	c-0.009,0.208-0.067,0.41-0.146,0.603c-0.168,0.401-0.324,0.809-0.51,1.201c-1.074,2.26-2.166,4.512-3.229,6.775
	c-0.449,0.957-0.917,1.918-0.861,2.922c0.001,2.322,1.493,4.375,3.606,5.072c1.061,0.35,2.152,0.516,3.263,0.564
	c0.792,0.035,1.583-0.021,2.313-0.387c0.576-0.287,0.847-0.762,0.82-1.395c-0.025-0.635-0.311-1.111-0.92-1.363
	c-0.211-0.088-0.426-0.16-0.65-0.199c-0.672-0.121-1.347-0.221-2.015-0.354c-1.103-0.221-1.565-0.803-1.58-1.918
	c-0.013-0.986,0.255-1.918,0.558-2.838c0.556-1.684,1.305-3.289,2.021-4.909c0.693-1.562,1.418-3.113,1.908-4.76
	c0.27-0.903,0.398-1.811,0.152-2.746C157.902,27.045,157.051,26.094,155.585,25.82z"/>
</svg>
