<svg xmlns="http://www.w3.org/2000/svg" width="72" height="72" viewBox="0 0 72 72"><g fill="none"><path d="M1066.767 305.143c0-1.216-.313-2.344-.922-3.393-.057-.098-.078-.157.022-.256 1.15-1.124 1.535-2.476 1.08-4.017-.367-1.24-1.204-2.077-2.418-2.526-.132-.047-.173-.103-.162-.24.026-.362.008-.725-.035-1.084-.194-1.644-.85-3.085-2.048-4.224-2.025-1.926-4.41-2.494-7.104-1.713-.152.044-.27.037-.415-.047-1.694-.997-3.52-1.382-5.458-1.022-2.76.513-4.747 2.064-5.93 4.615-.123.263-.27.372-.546.43-2.4.508-4.125 2.558-4.222 5.037-.038.994.197 1.93.692 2.796.07.125.064.198-.04.305-1.288 1.32-1.853 2.904-1.65 4.737.176 1.6.936 2.896 2.2 3.887.69.538 1.47.892 2.328 1.06.155.03.216.094.22.256.003.193.035.39.065.583.447 2.797 2.835 4.967 5.673 5.138 1.455.088 2.787-.29 3.976-1.138.146-.105.233-.104.375.008 1.016.8 2.174 1.142 3.45.958 1.93-.275 3.208-1.372 3.85-3.21.042-.126.097-.18.235-.18.41.003.817-.037 1.222-.106 3.207-.558 5.566-3.38 5.563-6.653zm-4.65 11.143c.92 0 1.675-.754 1.677-1.677 0-.9-.752-1.652-1.66-1.655-.928-.003-1.682.74-1.686 1.663-.005.902.762 1.667 1.67 1.668zm-27.93-17.053c0 .88.702 1.59 1.576 1.593.875.002 1.61-.73 1.607-1.596-.004-.868-.724-1.588-1.59-1.59-.89-.002-1.596.703-1.594 1.593zm22.713-14.647c.002-.876-.69-1.582-1.556-1.586-.88-.006-1.595.697-1.6 1.568-.005.87.708 1.585 1.583 1.586.872 0 1.57-.697 1.573-1.568zm10.022 9.62c.764.002 1.367-.594 1.363-1.345-.004-.72-.62-1.335-1.345-1.34-.74-.006-1.367.62-1.362 1.358.005.737.603 1.328 1.344 1.33zm-25.152-6.4c-.69.002-1.21.515-1.21 1.198 0 .678.53 1.21 1.203 1.21.684.002 1.212-.533 1.21-1.22-.004-.668-.534-1.19-1.203-1.188zM1052.145 318c.575 0 1.034-.45 1.04-1.02.006-.565-.46-1.03-1.03-1.034-.587 0-1.047.453-1.045 1.033 0 .568.457 1.02 1.035 1.02zm18.147-16.055c.002-.56-.438-1.014-.99-1.02-.55-.003-1.024.473-1.02 1.022.004.542.456.987 1.004.987.574.002 1.005-.42 1.006-.99zm-24.257-19.1c0-.478-.362-.842-.84-.845-.484-.002-.857.368-.857.85 0 .478.377.85.86.848.47-.003.837-.377.837-.852zm25.93 14.287c.005-.42-.327-.76-.748-.766-.395-.004-.752.35-.757.75-.005.412.34.757.76.758.416 0 .743-.323.746-.742zm-31.36 14.882c.408-.002.74-.34.743-.75.002-.4-.343-.746-.75-.75-.412-.002-.75.344-.748.766.004.41.338.738.754.734z"/><path d="M1054.753 304.616c-.033-.603.247-1.18.517-1.753.64-1.36 1.293-2.71 1.938-4.065.11-.236.205-.48.306-.72.05-.116.083-.238.088-.363.01-.23-.006-.465-.234-.594-.234-.13-.48-.12-.71.024-.254.162-.414.407-.548.666-.366.7-.73 1.4-1.09 2.104-.773 1.52-1.543 3.05-2.318 4.572-.226.443-.52.826-1.01 1.005-.42.152-.842.125-1.25-.05-.397-.173-.59-.605-.512-1.09.047-.286.16-.548.266-.813.52-1.308 1.046-2.61 1.562-3.918.122-.31.252-.62.278-.954.024-.314-.04-.607-.284-.828-.398-.36-1.073-.176-1.307.37-.232.54-.444 1.086-.663 1.632-.795 1.98-1.546 3.98-2.38 5.95-.25.592-.61 1.12-1.267 1.316-.81.244-1.59.13-2.305-.323-.915-.584-1.298-1.647-.974-2.728.724-2.416 1.424-4.84 2.28-7.21.19-.513.385-1.022.624-1.514.542-1.107 1.826-1.837 3.055-1.733.388.033.722.225 1.065.38.34.155.683.31 1.013.485.346.185.66.13.974-.067.35-.22.62-.533.942-.786.797-.628 1.778-.594 2.52.093.158.145.31.294.472.436.21.185.443.223.687.063.728-.48 1.528-.464 2.335-.314.88.163 1.39.734 1.614 1.585.145.562.068 1.105-.094 1.647-.293.988-.73 1.918-1.144 2.856-.43.97-.88 1.934-1.212 2.945-.183.553-.344 1.11-.335 1.703.01.67.286 1.02.948 1.15.4.08.805.14 1.207.21.136.024.265.067.392.12.365.152.536.438.552.82.016.38-.146.663-.492.836-.438.22-.914.252-1.39.23-.665-.028-1.32-.13-1.956-.338-1.268-.413-2.162-1.644-2.163-3.038z"/></g><path fill="#F70A3D" d="M58.82 44.57c.004 5.458-3.927 10.16-9.272 11.085-.673.116-1.353.184-2.035.177-.23-.002-.32.09-.394.3-1.068 3.065-3.198 4.89-6.415 5.352-2.128.304-4.06-.266-5.752-1.597-.236-.186-.38-.19-.626-.013-1.98 1.416-4.2 2.043-6.625 1.897-4.73-.285-8.71-3.9-9.455-8.562-.05-.322-.106-.647-.11-.972-.006-.27-.108-.375-.366-.425-1.432-.278-2.73-.868-3.878-1.766-2.11-1.652-3.376-3.81-3.67-6.478-.337-3.054.606-5.695 2.755-7.896.173-.177.184-.3.066-.507-.826-1.442-1.218-3.004-1.154-4.66.158-4.133 3.034-7.548 7.034-8.394.463-.1.706-.28.91-.72 1.973-4.25 5.286-6.836 9.883-7.69 3.228-.598 6.272.043 9.098 1.705.238.14.436.15.693.077 4.487-1.302 8.463-.355 11.84 2.855 1.995 1.897 3.09 4.3 3.413 7.04.072.598.105 1.203.06 1.805-.018.228.052.323.268.403 2.023.75 3.418 2.145 4.028 4.21.76 2.57.122 4.822-1.798 6.695-.166.163-.13.262-.037.425 1.016 1.75 1.54 3.63 1.54 5.655zm-4.956 15.778c.002-1.5-1.254-2.752-2.765-2.756-1.55-.006-2.806 1.233-2.813 2.77-.006 1.504 1.27 2.78 2.783 2.78 1.532.002 2.79-1.258 2.794-2.794zM7.146 37.378c1.458.002 2.684-1.216 2.678-2.66-.007-1.448-1.207-2.647-2.652-2.65-1.48-.005-2.657 1.17-2.656 2.654 0 1.467 1.173 2.652 2.63 2.655zM39.783 7.665c-1.465-.008-2.66 1.163-2.667 2.615-.01 1.45 1.18 2.643 2.638 2.645 1.452 0 2.618-1.162 2.62-2.615.004-1.46-1.15-2.637-2.59-2.644zM61.35 24.1c-.006-1.203-1.033-2.227-2.24-2.235-1.235-.01-2.28 1.034-2.272 2.265.01 1.228 1.005 2.213 2.24 2.214 1.274.003 2.28-.992 2.272-2.243zm-46.207-6.427c0 1.13.88 2.018 2.002 2.02 1.138 0 2.02-.89 2.016-2.037-.003-1.112-.885-1.982-2.004-1.98-1.15.003-2.013.858-2.013 1.997zM36.18 64.296c.01-.94-.764-1.717-1.716-1.72-.977-.003-1.745.754-1.742 1.72.002.95.765 1.704 1.725 1.704.96 0 1.726-.75 1.734-1.704zm26.864-26.752c-.915-.006-1.708.787-1.7 1.7.007.904.76 1.646 1.674 1.647.957.003 1.675-.702 1.677-1.647.003-.936-.732-1.692-1.65-1.7zM22.866 6c-.807-.003-1.43.613-1.43 1.415 0 .798.63 1.417 1.436 1.414.782-.005 1.395-.628 1.395-1.42 0-.8-.603-1.406-1.4-1.41zm43.37 23.944c-.657-.008-1.253.58-1.26 1.247-.01.69.564 1.264 1.264 1.266.695.003 1.24-.538 1.245-1.236.006-.702-.547-1.267-1.25-1.276zM16.454 54.77c.003-.666-.572-1.24-1.25-1.248-.687-.005-1.25.572-1.247 1.275.005.687.563 1.23 1.257 1.225.682-.003 1.238-.564 1.24-1.25z"/><path fill="#FFF" d="M45.585 25.82c-1.343-.25-2.68-.278-3.894.522-.402.266-.79.202-1.14-.107-.27-.235-.524-.484-.786-.726-1.24-1.145-2.876-1.2-4.206-.156-.537.42-.988.944-1.57 1.31-.522.327-1.047.42-1.624.112-.55-.293-1.118-.55-1.686-.808-.575-.26-1.13-.58-1.778-.635-2.046-.174-4.187 1.042-5.09 2.89-.4.818-.727 1.667-1.037 2.523-1.432 3.954-2.598 7.992-3.805 12.016-.54 1.8.098 3.573 1.623 4.546 1.19.758 2.494.946 3.842.54 1.093-.328 1.69-1.207 2.11-2.195 1.39-3.278 2.64-6.61 3.966-9.916.364-.91.717-1.822 1.104-2.72.39-.91 1.513-1.22 2.18-.616.405.37.513.858.473 1.38-.044.56-.26 1.076-.464 1.59-.86 2.18-1.74 4.352-2.605 6.53-.175.44-.364.876-.442 1.35-.132.81.19 1.53.853 1.816.677.292 1.38.34 2.083.086.816-.296 1.304-.936 1.68-1.675 1.292-2.538 2.575-5.082 3.867-7.62.596-1.173 1.204-2.34 1.813-3.505.226-.432.492-.84.915-1.11.382-.242.794-.26 1.185-.04.382.214.408.605.392.99-.01.21-.067.41-.146.604-.167.4-.324.808-.51 1.2-1.074 2.26-2.165 4.512-3.23 6.776-.448.956-.916 1.917-.86 2.922 0 2.322 1.493 4.375 3.607 5.072 1.06.35 2.152.516 3.262.564.792.035 1.583-.02 2.314-.386.574-.287.845-.762.82-1.394-.027-.636-.312-1.112-.92-1.365-.212-.088-.427-.16-.652-.2-.67-.12-1.346-.22-2.014-.352-1.103-.22-1.565-.803-1.58-1.918-.013-.986.255-1.917.558-2.837.555-1.685 1.304-3.29 2.02-4.91.694-1.562 1.42-3.113 1.91-4.76.27-.903.397-1.81.152-2.745-.372-1.418-1.223-2.37-2.69-2.643z"/></svg>